<?xml version="1.0" standalone="no"?>
<!DOCTYPE svg PUBLIC "-//W3C//DTD SVG 20010904//EN"
 "http://www.w3.org/TR/2001/REC-SVG-20010904/DTD/svg10.dtd">
<svg version="1.0" xmlns="http://www.w3.org/2000/svg"
 width="346.000000pt" height="346.000000pt" viewBox="0 0 346.000000 346.000000"
 preserveAspectRatio="xMidYMid meet">
<metadata>
Created by potrace 1.11, written by Peter Selinger 2001-2013
</metadata>
<g transform="translate(0.000000,346.000000) scale(0.100000,-0.100000)"
fill="#000000" stroke="none">
<path d="M0 1730 l0 -1730 1730 0 1730 0 0 1730 0 1730 -1730 0 -1730 0 0
-1730z m1588 1673 c-10 -2 -26 -2 -35 0 -10 3 -2 5 17 5 19 0 27 -2 18 -5z
m265 0 c-7 -2 -21 -2 -30 0 -10 3 -4 5 12 5 17 0 24 -2 18 -5z m-366 -9 c-3
-3 -12 -4 -19 -1 -8 3 -5 6 6 6 11 1 17 -2 13 -5z m476 -1 c-7 -2 -21 -2 -30
0 -10 3 -4 5 12 5 17 0 24 -2 18 -5z m44 -9 c-3 -3 -12 -4 -19 -1 -8 3 -5 6 6
6 11 1 17 -2 13 -5z m-627 -11 c-14 -2 -40 -8 -59 -13 -19 -5 -30 -5 -25 -1
12 12 42 19 79 18 26 0 26 0 5 -4z m734 -12 c3 -4 -6 -6 -19 -3 -14 2 -25 6
-25 8 0 8 39 4 44 -5z m-857 -17 c-3 -3 -12 -4 -19 -1 -8 3 -5 6 6 6 11 1 17
-2 13 -5z m-68 -18 c-2 -2 -29 -14 -59 -26 -30 -12 -51 -18 -47 -13 5 4 27 16
50 25 41 16 65 22 56 14z m1126 -26 c13 -6 15 -9 5 -9 -8 0 -22 4 -30 9 -18
12 -2 12 25 0z m91 -41 c3 -5 -7 -4 -23 3 -41 17 -53 30 -15 17 18 -6 35 -15
38 -20z m-1419 -19 c-20 -11 -40 -20 -44 -20 -14 0 52 39 67 39 8 1 -2 -8 -23
-19z m1503 -26 c0 -2 -9 0 -20 6 -11 6 -20 13 -20 16 0 2 9 0 20 -6 11 -6 20
-13 20 -16z m-1565 -2 c-22 -20 -85 -53 -85 -45 0 4 17 18 38 29 38 23 64 31
47 16z m1600 -20 c-3 -3 -11 0 -18 7 -9 10 -8 11 6 5 10 -3 15 -9 12 -12z m51
-30 c-4 -3 -14 2 -24 12 -16 18 -16 18 6 6 13 -6 21 -14 18 -18z m-1751 -12
c-9 -15 -45 -32 -45 -22 0 5 10 14 23 20 29 14 29 14 22 2z m1815 -26 c0 -2
-9 0 -20 6 -11 6 -20 13 -20 16 0 2 9 0 20 -6 11 -6 20 -13 20 -16z m-1870 -8
c0 -2 -11 -11 -25 -20 -14 -9 -25 -13 -25 -8 0 5 10 14 23 20 27 13 27 13 27
8z m1932 -26 c18 -16 35 -30 39 -30 4 0 10 -8 13 -17 5 -13 0 -11 -21 7 -15
14 -32 30 -38 36 -5 6 -19 16 -30 22 -11 6 -15 12 -8 12 6 0 27 -13 45 -30z
m-2037 -50 c-3 -5 -12 -10 -18 -10 -7 0 -6 4 3 10 19 12 23 12 15 0z m2145
-40 c3 -3 18 -16 34 -28 16 -12 23 -22 17 -22 -6 0 -31 19 -54 41 -23 23 -33
36 -22 28 11 -8 22 -16 25 -19z m-2260 -63 c-36 -34 -67 -61 -70 -59 -5 4 121
121 130 121 3 1 -24 -28 -60 -62z m2345 -15 c-3 -3 -11 0 -18 7 -9 10 -8 11 6
5 10 -3 15 -9 12 -12z m30 -30 c-3 -3 -11 0 -18 7 -9 10 -8 11 6 5 10 -3 15
-9 12 -12z m25 -19 c0 -5 11 -21 25 -37 33 -38 32 -46 -1 -15 -32 30 -49 59
-34 59 5 0 10 -3 10 -7z m-2536 -85 c-16 -18 -33 -37 -38 -43 -5 -7 -7 -6 -5
1 7 19 53 74 63 74 6 0 -3 -15 -20 -32z m2624 -28 c13 -16 19 -30 14 -30 -4 0
-16 14 -25 30 -10 17 -16 30 -14 30 2 0 13 -13 25 -30z m-2691 -58 c-10 -10
-17 -25 -18 -33 0 -9 -2 -10 -5 -2 -6 13 26 67 34 58 3 -3 -2 -13 -11 -23z
m2782 -70 c34 -54 43 -85 10 -37 -26 38 -51 85 -45 85 2 0 18 -22 35 -48z
m-2829 3 c-7 -9 -15 -13 -17 -11 -6 6 20 36 26 30 2 -2 -2 -10 -9 -19z m-27
-40 c-3 -9 -8 -14 -10 -11 -3 3 -2 9 2 15 9 16 15 13 8 -4z m-28 -54 c-8 -17
-21 -33 -27 -37 -8 -5 -7 1 3 16 8 14 19 31 23 38 15 25 16 11 1 -17z m2958
-38 c38 -74 30 -76 -11 -2 -18 32 -29 59 -25 58 4 0 21 -25 36 -56z m-3000
-33 c-5 -19 -23 -39 -23 -25 0 9 20 45 24 45 2 0 2 -9 -1 -20z m3087 -158 c0
-15 -2 -15 -10 -2 -13 20 -13 33 0 25 6 -3 10 -14 10 -23z m19 -67 l0 -20 -9
20 c-5 11 -9 27 -9 35 -1 13 0 13 9 0 5 -8 9 -24 9 -35z m-3218 -66 c-5 -13
-10 -19 -10 -12 -1 15 10 45 15 40 3 -2 0 -15 -5 -28z m-14 -71 c-3 -7 -5 -2
-5 12 0 14 2 19 5 13 2 -7 2 -19 0 -25z m3270 -10 c-3 -7 -5 -2 -5 12 0 14 2
19 5 13 2 -7 2 -19 0 -25z m-3286 -59 c-5 -26 -9 -34 -10 -19 -1 27 9 73 15
67 2 -2 0 -23 -5 -48z m-20 -129 c-5 -41 -9 -52 -10 -30 -1 39 11 120 16 105
1 -6 -1 -39 -6 -75z m3346 -147 c-3 -10 -5 -2 -5 17 0 19 2 27 5 18 2 -10 2
-26 0 -35z m-3360 -85 c-2 -18 -4 -4 -4 32 0 36 2 50 4 33 2 -18 2 -48 0 -65z
m10 -135 c-2 -16 -4 -3 -4 27 0 30 2 43 4 28 2 -16 2 -40 0 -55z m3350 45 c-3
-7 -5 -2 -5 12 0 14 2 19 5 13 2 -7 2 -19 0 -25z m-3335 -112 c2 -19 0 -32 -4
-30 -8 5 -12 64 -4 64 2 0 6 -15 8 -34z m12 -72 c3 -8 2 -12 -4 -9 -6 3 -10
10 -10 16 0 14 7 11 14 -7z m3293 -6 c-3 -8 -6 -5 -6 6 -1 11 2 17 5 13 3 -3
4 -12 1 -19z m-3278 -68 c0 -9 -4 -8 -9 5 -5 11 -9 27 -9 35 0 9 4 8 9 -5 5
-11 9 -27 9 -35z m3262 -11 c-5 -13 -10 -19 -10 -12 -1 15 10 45 15 40 3 -2 0
-15 -5 -28z m-14 -51 c-3 -8 -6 -5 -6 6 -1 11 2 17 5 13 3 -3 4 -12 1 -19z
m-3221 -33 c9 -39 0 -30 -15 15 -6 19 -7 30 -2 25 5 -6 13 -23 17 -40z m3198
-44 c-9 -23 -18 -40 -21 -38 -2 3 4 23 13 46 9 23 18 40 21 38 2 -3 -4 -23
-13 -46z m-32 -88 c-3 -16 -7 -22 -10 -15 -4 13 4 42 11 42 2 0 2 -12 -1 -27z
m-3108 -19 c3 -8 2 -12 -4 -9 -6 3 -10 10 -10 16 0 14 7 11 14 -7z m68 -139
c28 -55 8 -32 -26 30 -15 28 -20 41 -11 30 9 -11 26 -38 37 -60z m2969 2 c-5
-14 -15 -28 -21 -32 -5 -3 -3 10 7 29 19 40 29 42 14 3z m-58 -97 c-15 -27
-29 -46 -31 -41 -3 9 46 91 55 91 2 0 -8 -22 -24 -50z m-2853 -10 c6 -11 8
-20 6 -20 -3 0 -10 9 -16 20 -6 11 -8 20 -6 20 3 0 10 -9 16 -20z m31 -47 c13
-16 12 -17 -3 -4 -17 13 -22 21 -14 21 2 0 10 -8 17 -17z m54 -75 c16 -24 22
-38 14 -31 -15 12 -53 73 -46 73 2 0 17 -19 32 -42z m2678 7 c-3 -9 -8 -14
-10 -11 -3 3 -2 9 2 15 9 16 15 13 8 -4z m-33 -48 c0 -2 -17 -19 -37 -38 l-38
-34 34 38 c33 34 41 42 41 34z m-2465 -158 c57 -53 178 -154 203 -168 9 -5 14
-12 12 -15 -15 -15 -350 286 -350 314 0 5 19 -11 43 -37 23 -25 65 -68 92 -94z
m2340 21 c-10 -11 -22 -20 -28 -20 -5 0 1 9 14 20 31 25 37 25 14 0z m-81 -75
c-4 -8 -11 -15 -16 -15 -6 0 -5 6 2 15 7 8 14 15 16 15 2 0 1 -7 -2 -15z m-94
-78 c-33 -31 -102 -77 -115 -77 -5 0 22 23 60 50 75 54 94 64 55 27z m-1896
-78 c15 -12 71 -43 124 -70 111 -55 118 -66 9 -14 -78 37 -188 105 -171 105 6
0 23 -10 38 -21z m1736 -23 c0 -7 -80 -56 -92 -56 -7 0 -1 7 14 14 15 8 38 22
50 30 23 17 28 19 28 12z m-110 -60 c0 -2 -7 -7 -16 -10 -8 -3 -12 -2 -9 4 6
10 25 14 25 6z m-45 -26 c-3 -5 -12 -10 -18 -10 -7 0 -6 4 3 10 19 12 23 12
15 0z m-45 -15 c0 -2 -10 -9 -22 -15 -22 -11 -22 -10 -4 4 21 17 26 19 26 11z
m-1177 -45 c49 -16 95 -30 102 -30 8 0 16 -4 20 -10 8 -13 -168 39 -204 60
-26 15 -10 11 82 -20z m1102 10 c-3 -5 -12 -10 -18 -10 -7 0 -6 4 3 10 19 12
23 12 15 0z m-100 -29 c-6 -5 -23 -12 -40 -15 -28 -6 -28 -5 5 8 43 18 46 18
35 7z m-100 -31 c-3 -5 -18 -10 -33 -9 l-27 1 25 8 c35 11 42 11 35 0z m-685
-10 c18 -12 2 -12 -25 0 -13 6 -15 9 -5 9 8 0 22 -4 30 -9z m575 -10 c-3 -5
-18 -9 -33 -9 l-27 1 30 8 c17 4 31 8 33 9 2 0 0 -3 -3 -9z m42 4 c-3 -3 -12
-4 -19 -1 -8 3 -5 6 6 6 11 1 17 -2 13 -5z m-514 -11 c-7 -2 -21 -2 -30 0 -10
3 -4 5 12 5 17 0 24 -2 18 -5z m64 -9 c-3 -3 -12 -4 -19 -1 -8 3 -5 6 6 6 11
1 17 -2 13 -5z m261 -1 c-10 -2 -26 -2 -35 0 -10 3 -2 5 17 5 19 0 27 -2 18
-5z"/>
</g>
</svg>
